<svg width="40" height="40" viewBox="0 0 40 40" fill="none" xmlns="http://www.w3.org/2000/svg">
<path d="M13.7288 1.09493C9.60137 2.49776 6.04192 5.16038 3.57323 8.69168C1.10453 12.223 -0.143272 16.4368 0.0130908 20.7143C0.169454 24.9918 1.72174 29.1074 4.44196 32.4566C7.16217 35.8058 10.9069 38.2122 15.1262 39.3221C18.5468 40.1869 22.1306 40.2248 25.5695 39.4328C28.6849 38.7472 31.5651 37.2807 33.9281 35.1769C36.3875 32.9204 38.1727 30.0498 39.0917 26.8738C40.0906 23.4199 40.2684 19.7878 39.6113 16.2562H20.4027V24.0629H31.527C31.3047 25.308 30.8283 26.4963 30.1262 27.5568C29.4242 28.6173 28.511 29.5282 27.4413 30.2349C26.0829 31.1152 24.5516 31.7076 22.9458 31.9739C21.3352 32.2673 19.6832 32.2673 18.0726 31.9739C16.4403 31.6432 14.896 30.9831 13.5384 30.0357C11.3572 28.523 9.71947 26.374 8.85884 23.8953C7.98366 21.3702 7.98366 18.6327 8.85884 16.1076C9.47146 14.3376 10.4842 12.726 11.8215 11.3932C13.3518 9.8399 15.2892 8.72961 17.4212 8.18412C19.5532 7.63863 21.7974 7.67902 23.9075 8.30086C25.5559 8.79662 27.0633 9.66281 28.3095 10.8304C29.5638 9.60778 30.816 8.38202 32.066 7.1531C32.7114 6.49227 33.415 5.86305 34.0507 5.18641C32.1485 3.45204 29.9156 2.10249 27.4801 1.21508C23.0449 -0.362728 18.192 -0.405131 13.7288 1.09493Z" fill="#E02A26"/>
</svg>
