<svg width="40" height="40" viewBox="0 0 40 40" fill="none" xmlns="http://www.w3.org/2000/svg">
<path d="M2.8 2.8C5.29819e-07 5.62667 0 10.1467 0 19.2V20.8C0 29.84 5.29819e-07 34.36 2.8 37.2C5.62667 40 10.1467 40 19.2 40H20.8C29.84 40 34.36 40 37.2 37.2C40 34.3733 40 29.8533 40 20.8V19.2C40 10.16 40 5.64 37.2 2.8C34.3733 5.29819e-07 29.8533 0 20.8 0H19.2C10.16 0 5.64 5.29819e-07 2.8 2.8ZM6.74667 12.1733H11.3333C11.48 19.8 14.84 23.0267 17.5067 23.6933V12.1733H21.8133V18.7467C24.44 18.4667 27.2133 15.4667 28.1467 12.16H32.44C32.0897 13.8716 31.3903 15.4926 30.3855 16.9218C29.3807 18.351 28.092 19.5578 26.6 20.4667C28.2654 21.2953 29.7362 22.4676 30.9152 23.9064C32.0943 25.3451 32.9548 27.0176 33.44 28.8133H28.7067C27.6933 25.6533 25.16 23.2 21.8133 22.8667V28.8133H21.28C12.16 28.8133 6.96 22.5733 6.74667 12.1733Z" fill="#E02A26"/>
</svg>
